<svg xmlns="http://www.w3.org/2000/svg" xml:space="preserve" id="Layer_1" x="0" y="0" style="enable-background:new 0 0 51.5 13.7" version="1.1" viewBox="0 0 51.5 13.7"><style>.st0{fill:#003087}.st1{fill:#009cde}</style><path d="M8.7.7C8.1.2 7.2 0 6.2 0h-4c-.3 0-.5.2-.6.5L0 10.7c0 .1 0 .2.1.3.1.1.2.1.3.1h1.9c.3 0 .5-.2.6-.5l.5-2.8c0-.1.1-.2.2-.3.1-.1.2-.1.4-.2h1.3c1.4 0 2.6-.4 3.4-1.2.8-.8 1.2-1.9 1.2-3.4-.2-.9-.5-1.6-1.2-2zm-2.1 3c0 .6-.3 1-.6 1.2-.4.2-.9.3-1.5.3h-.8l.4-2.7c0-.2.1-.3.3-.3h.5c.7 0 1.2.1 1.5.3.2.2.3.6.2 1.2z" class="st0"/><path d="M51.2 0h-1.9c-.2 0-.3.1-.3.3l-1.6 10.5v.1c0 .1 0 .2.1.2.1.1.2.1.3.1h1.7c.3 0 .5-.2.5-.5L51.6.4c-.1-.3-.2-.4-.4-.4z" class="st1"/><path d="M28.7 4.1c0-.1 0-.2-.1-.2-.1-.1-.1-.1-.2-.1h-1.9c-.2 0-.3.1-.5.3L23.3 8l-1.1-3.8c-.1-.3-.3-.4-.6-.4h-1.9c-.1 0-.2 0-.2.1-.1.1-.1.2-.1.2s.2.5.5 1.5.7 2 1.1 3.1c.4 1.1.6 1.7.6 1.8-1.4 1.9-2.1 2.9-2.1 3 0 .2.1.3.3.3h1.9c.2 0 .3-.1.5-.3l6.4-9.3c.1 0 .1-.1.1-.1z" class="st0"/><path d="M46.8 3.7h-1.9c-.2 0-.4.3-.4.8-.4-.7-1.2-1-2.4-1S39.9 4 39 4.9c-.8.9-1.3 2-1.3 3.2 0 1 .3 1.8.9 2.4.6.6 1.4.9 2.3.9.5 0 1-.1 1.5-.3.5-.2.9-.5 1.2-.8 0 0 0 .1-.1.2 0 .1-.1.2-.1.3 0 .3.1.4.3.4h1.7c.3 0 .5-.2.6-.5l1-6.6c0-.1 0-.2-.1-.3 0-.1 0-.1-.1-.1zm-3.3 5c-.4.4-.9.6-1.5.6-.5 0-.9-.1-1.2-.4-.3-.3-.5-.6-.5-1.1 0-.6.2-1.1.6-1.6.4-.4.9-.6 1.6-.6.5 0 .9.1 1.2.4.3.3.5.7.5 1.1-.1.6-.3 1.1-.7 1.6z" class="st1"/><path d="M18.2 3.7h-1.9c-.2 0-.4.3-.4.8-.5-.7-1.2-1-2.4-1s-2.2.5-3.1 1.4c-.8.9-1.3 2-1.3 3.2 0 1 .3 1.8.9 2.4.6.6 1.4.9 2.3.9.5 0 1-.1 1.5-.3.5-.2.9-.5 1.2-.8-.1.2-.1.4-.1.5 0 .3.1.4.3.4h1.7c.3 0 .5-.2.6-.5l1-6.6c0-.1 0-.2-.1-.3 0-.1-.1-.1-.2-.1zm-3.3 5c-.4.4-1 .6-1.6.6-.5 0-.9-.1-1.2-.4-.3-.3-.4-.6-.4-1.1 0-.6.2-1.1.6-1.6.4-.4.9-.6 1.6-.6.5 0 .9.1 1.2.4.3.3.5.7.5 1.1-.1.6-.3 1.2-.7 1.6z" class="st0"/><path d="M37.3.7c-.6-.5-1.5-.7-2.5-.7h-4c-.3 0-.5.2-.6.5l-1.6 10.3c0 .1 0 .2.1.3.1.1.2.1.3.1h2c.2 0 .3-.1.4-.3l.5-2.9c0-.1.1-.2.2-.3.1-.1.2-.1.4-.2h1.3c1.4 0 2.6-.4 3.4-1.2.8-.8 1.2-1.9 1.2-3.4-.1-1.1-.4-1.8-1.1-2.2zm-2.6 4.1c-.4.3-.9.4-1.7.4h-.8l.4-2.7c0-.2.1-.3.3-.3h.5c.4 0 .7 0 .9.1.2 0 .4.1.6.3.2.2.3.4.3.8.1.7-.1 1.2-.5 1.4z" class="st1"/></svg>