<svg xmlns="http://www.w3.org/2000/svg" xml:space="preserve" style="enable-background:new 0 0 32 10.1" viewBox="0 0 32 10.1"><path fill="#2C2F2B" d="M23.3.5C22.6.2 21.8.1 21 .1c-2.6 0-4.4 1.3-4.4 3.1 0 1.4 1.3 2.1 2.3 2.6 1 .5 1.3.8 1.3 1.2 0 .6-.8.9-1.5.9-1 0-1.6-.1-2.4-.5l-.3-.2-.4 2.1c.6.3 1.7.5 2.9.5 2.7 0 4.5-1.3 4.5-3.3 0-1.1-.7-1.9-2.2-2.6-.9-.4-1.5-.7-1.5-1.2 0-.4.5-.8 1.5-.8.7 0 1.3.1 1.9.4l.3.3.3-2.1zm6.6-.2h-2c-.6 0-1.1.2-1.4.8l-3.8 8.7h2.7l.6-1.4h3.3c.1.3.3 1.4.3 1.4H32L29.9.3zm-17-.1h2.6l-1.6 9.5h-2.6L12.9.2zM6.3 5.5l.3 1.3L9.1.3h2.7l-4 9.5H5l-2.2-8c0-.1-.1-.2-.2-.3C1.7 1 .9.7 0 .5V.3h4.2c.6 0 1 .2 1.2.8l.9 4.4zm20.4.9 1-2.7s.2-.5.3-.9l.2.8.6 2.7-2.1.1z"/></svg>